<mxfile host="app.diagrams.net" modified="2024-07-07T14:36:49.786Z" agent="Mozilla/5.0 (Windows NT 10.0; Win64; x64) AppleWebKit/537.36 (KHTML, like Gecko) Chrome/126.0.0.0 Safari/537.36" version="24.6.4" etag="h8zjkacqi_Xf33GKce__" type="github">
  <diagram name="Page-1" id="sg_0_2T2ugm17yvBKsYt">
    <mxGraphModel>
      <root>
        <mxCell id="0" />
        <mxCell id="1" parent="0" />
      </root>
    </mxGraphModel>
  </diagram>
</mxfile>
